<svg width="115" height="47" viewBox="0 0 115 47" fill="none" xmlns="http://www.w3.org/2000/svg">
<path d="M0.272727 47V0.454544H13.9091C16.5152 0.454544 18.8182 1.00757 20.8182 2.11364C22.8333 3.21969 24.4091 4.76515 25.5455 6.75C26.697 8.73485 27.2727 11.0606 27.2727 13.7273C27.2727 16.3636 26.697 18.6742 25.5455 20.6591C24.4091 22.6288 22.8333 24.1667 20.8182 25.2727C18.8182 26.3636 16.5152 26.9091 13.9091 26.9091H1V25.4545H13.9091C16.2424 25.4545 18.303 24.9697 20.0909 24C21.8788 23.0303 23.2803 21.6667 24.2955 19.9091C25.3106 18.1515 25.8182 16.0909 25.8182 13.7273C25.8182 11.3485 25.3106 9.27273 24.2955 7.5C23.2803 5.72727 21.8788 4.35606 20.0909 3.38636C18.303 2.40151 16.2424 1.90909 13.9091 1.90909H1.72727V47H0.272727ZM18 25.8182L29.4545 47H27.8182L16.3636 25.8182H18ZM39.6477 47V0.454544H64.6477V1.90909H41.1023V23H62.4659V24.4545H41.1023V47H39.6477ZM92.5398 23V24.4545H75.1761V23H92.5398ZM114.148 0.454544V47H112.693V2H112.42L102.42 8.63636V6.90909L112.148 0.454544H114.148Z" fill="#3D394D"/>
</svg>
